<?xml version="1.0" standalone="no"?>
<!DOCTYPE svg PUBLIC "-//W3C//DTD SVG 20010904//EN"
 "http://www.w3.org/TR/2001/REC-SVG-20010904/DTD/svg10.dtd">
<svg version="1.0" xmlns="http://www.w3.org/2000/svg"
 width="400.000000pt" height="400.000000pt" viewBox="0 0 400.000000 400.000000"
 preserveAspectRatio="xMidYMid meet">
<metadata>
Created by potrace 1.11, written by Peter Selinger 2001-2013
</metadata>
<g transform="translate(0.000000,400.000000) scale(0.100000,-0.100000)"
fill="#000000" stroke="none">
<path d="M1094 3731 c3 -5 -2 -8 -12 -7 -9 0 -16 -5 -14 -12 1 -8 -2 -11 -7
-7 -13 7 -29 -24 -26 -48 2 -9 0 -15 -4 -12 -11 6 -7 -217 3 -234 6 -8 5 -12
0 -8 -12 7 -12 -453 0 -472 6 -9 5 -12 -2 -7 -7 4 -10 -14 -8 -59 2 -39 -2
-68 -8 -73 -6 -4 -67 -7 -136 -7 -125 1 -125 1 -122 24 3 17 0 21 -10 15 -10
-6 -11 -5 -2 7 6 8 10 22 9 32 -2 9 1 15 6 11 5 -3 9 0 9 7 0 7 3 9 6 6 4 -3
16 -1 28 5 11 7 24 11 28 10 4 -1 12 7 18 18 6 12 16 18 23 14 7 -4 9 -4 5 1
-4 4 0 14 10 22 10 9 11 11 2 7 -13 -7 -13 -5 -1 9 7 9 18 14 24 10 6 -4 8 0
5 8 -3 8 0 23 8 33 10 14 10 24 3 39 -8 14 -8 18 0 12 11 -6 10 35 -2 75 -15
50 -20 60 -28 60 -5 0 -9 6 -9 14 0 8 -9 18 -20 21 -11 4 -18 11 -15 16 4 5
-1 9 -9 9 -9 0 -16 5 -16 10 0 6 -3 9 -7 9 -21 -3 -44 2 -39 9 3 5 -30 7 -72
6 -94 -3 -102 -5 -102 -17 0 -5 -7 -6 -16 -3 -12 5 -15 2 -10 -10 4 -12 2 -15
-9 -10 -9 3 -15 0 -15 -10 0 -8 -4 -13 -9 -9 -6 3 -15 -4 -21 -15 -6 -11 -7
-20 -3 -20 4 0 -1 -7 -11 -15 -11 -8 -16 -15 -11 -15 4 0 0 -9 -9 -19 -11 -12
-13 -21 -7 -25 6 -4 8 -13 5 -21 -4 -8 -11 -12 -16 -9 -6 4 -2 -6 8 -22 14
-21 15 -26 4 -19 -13 8 -13 7 -1 -8 7 -9 10 -17 6 -17 -4 0 0 -11 9 -25 9 -14
14 -25 11 -25 -3 0 5 -12 19 -27 14 -15 23 -30 20 -35 -3 -4 3 -5 12 -1 12 4
15 3 10 -5 -5 -8 0 -12 14 -12 15 0 20 -5 17 -13 -4 -10 2 -13 19 -9 20 4 25
0 30 -27 4 -19 11 -28 18 -24 6 3 3 -3 -7 -14 -10 -12 -14 -24 -9 -27 5 -3 8
-20 7 -38 -3 -34 11 -62 26 -52 5 3 9 0 9 -6 0 -8 6 -8 20 0 16 9 22 8 26 -5
3 -8 10 -12 15 -9 5 3 6 11 3 17 -5 9 -4 9 6 0 9 -8 19 -9 32 -2 14 7 20 6 24
-6 3 -8 10 -12 15 -9 5 3 6 11 3 17 -5 9 -4 9 6 0 9 -9 19 -9 33 -2 12 7 17 7
13 1 -3 -5 1 -12 9 -16 8 -3 17 0 21 6 5 7 2 8 -6 3 -9 -6 -11 -4 -5 4 5 9 10
10 18 2 15 -15 30 -14 21 2 -4 6 1 4 12 -5 18 -16 22 -16 35 -3 13 13 15 13
16 -3 1 -9 2 -22 3 -27 1 -6 2 -21 1 -35 -1 -18 -4 -21 -10 -11 -5 7 -14 10
-20 7 -6 -4 -11 -1 -11 6 0 8 -3 9 -8 3 -4 -5 -27 -10 -52 -10 -25 0 -56 -5
-69 -12 -14 -7 -28 -10 -33 -7 -4 3 -8 0 -8 -5 0 -6 -6 -11 -14 -11 -8 0 -21
-7 -30 -15 -8 -9 -18 -16 -21 -15 -20 1 -25 -1 -20 -9 3 -5 -4 -12 -15 -16
-23 -7 -80 -62 -80 -76 0 -6 -3 -8 -8 -6 -4 3 -18 -18 -32 -46 -14 -29 -29
-55 -34 -58 -5 -4 -6 -11 -2 -17 3 -5 -1 -13 -10 -16 -13 -5 -14 -9 -4 -21 8
-10 9 -15 2 -15 -7 0 -9 -7 -5 -17 5 -11 3 -14 -6 -8 -10 6 -11 3 -2 -14 7
-13 8 -21 2 -21 -5 0 -8 -9 -6 -20 2 -11 -2 -20 -8 -20 -8 0 -8 -3 -2 -8 12
-8 18 -29 17 -54 0 -10 4 -18 10 -18 7 0 6 -5 -1 -14 -9 -11 -9 -15 1 -19 18
-7 -12 -29 -30 -22 -7 3 -15 -2 -19 -11 -3 -8 -12 -13 -19 -10 -8 3 -14 1 -14
-5 0 -6 -4 -7 -10 -4 -5 3 -10 1 -10 -5 0 -6 -5 -8 -10 -5 -6 3 -10 1 -10 -4
0 -6 -3 -10 -7 -9 -15 3 -43 -14 -37 -23 3 -5 -2 -6 -10 -3 -8 3 -23 -4 -33
-15 -9 -12 -23 -21 -29 -21 -6 0 -24 -12 -40 -27 -16 -15 -32 -26 -36 -25 -5
1 -8 -3 -8 -9 0 -5 -5 -7 -10 -4 -6 4 -9 3 -8 -2 2 -5 -14 -25 -34 -46 -21
-20 -35 -37 -31 -37 3 0 -4 -9 -17 -20 -13 -11 -20 -20 -16 -20 4 0 0 -7 -8
-16 -9 -8 -16 -22 -16 -30 0 -8 -4 -12 -10 -9 -5 3 -10 -1 -10 -9 0 -24 -2
-30 -17 -44 -7 -8 -11 -18 -8 -23 4 -5 2 -9 -3 -9 -8 0 -12 -14 -13 -53 0 -9
-4 -15 -8 -13 -12 8 -11 -637 1 -651 8 -9 7 -13 -3 -13 -12 0 -12 -2 0 -9 7
-5 11 -13 7 -19 -3 -6 3 -13 14 -17 11 -3 20 -11 20 -16 0 -16 53 -36 101 -38
23 -1 27 -6 31 -36 2 -19 0 -35 -4 -35 -5 0 -4 -9 2 -20 6 -11 7 -20 3 -20 -4
0 -6 -54 -3 -120 3 -66 1 -120 -3 -120 -4 0 -3 -9 3 -20 6 -11 7 -20 2 -20
-10 0 0 -68 12 -88 4 -7 11 -10 16 -7 5 3 12 0 17 -7 7 -12 83 -19 83 -8 0 7
96 4 108 -4 6 -3 14 -2 17 4 5 8 11 8 20 0 10 -8 15 -8 20 1 6 8 10 7 16 -2 8
-12 10 -12 18 0 7 11 9 11 14 0 3 -8 6 -9 6 -4 1 6 21 9 48 6 54 -4 115 22
106 45 -3 8 1 14 8 14 11 0 11 3 -1 10 -12 7 -12 10 -1 10 9 0 11 6 6 18 -4 9
-7 33 -5 52 3 45 3 51 -4 78 -3 13 -1 20 5 17 5 -4 9 -1 9 4 0 6 -6 11 -12 11
-9 0 -8 4 2 10 10 6 11 10 3 10 -7 0 -13 5 -13 11 0 5 6 7 13 3 8 -5 8 -2 -2
9 -10 13 -10 17 -1 17 8 0 9 6 5 17 -4 10 -7 34 -5 53 3 45 3 51 -4 78 -3 13
-1 20 5 17 5 -4 9 -2 9 3 0 14 69 20 74 7 2 -5 5 -4 5 4 1 11 4 11 16 1 8 -7
15 -8 15 -3 0 5 9 9 20 9 11 0 20 -5 20 -11 0 -5 5 -3 10 5 5 8 10 10 10 4 0
-6 12 -10 27 -8 15 1 30 -1 33 -6 3 -5 25 -10 50 -12 25 -2 47 -6 50 -9 3 -4
23 -9 45 -12 22 -4 54 -10 70 -15 17 -4 37 -8 45 -7 8 0 17 -3 20 -7 3 -4 21
-8 40 -9 19 -2 40 -7 47 -12 7 -5 17 -6 23 -2 5 3 10 2 10 -2 0 -5 14 -8 30
-7 17 1 30 -1 30 -6 0 -4 11 -8 25 -9 14 -1 36 -2 50 -3 14 -1 25 -5 25 -8 0
-6 33 -11 78 -13 12 -1 22 -4 22 -7 0 -5 33 -11 70 -12 8 -1 21 -6 29 -12 12
-9 13 -8 6 3 -6 11 -5 12 6 5 15 -9 26 -11 74 -16 17 -1 33 -7 37 -13 5 -6 8
-5 8 3 0 9 5 10 18 4 28 -15 232 -22 232 -9 0 5 6 4 14 -2 11 -10 15 -8 19 6
4 17 5 17 6 0 0 -10 6 -15 11 -12 6 4 7 12 3 18 -4 8 -1 7 9 -1 12 -10 18 -10
23 -1 6 8 10 7 16 -2 5 -8 9 -9 9 -3 0 6 11 10 25 9 14 -2 28 1 31 6 4 6 11 6
19 -1 10 -8 16 -7 24 7 6 10 11 13 11 6 0 -9 8 -9 30 -1 17 5 37 7 45 4 8 -3
15 -1 15 3 0 5 7 12 16 15 9 4 13 2 8 -5 -4 -8 -1 -8 12 -1 11 5 27 8 37 7 9
-2 17 1 17 6 0 4 7 6 15 3 8 -4 15 -2 15 3 0 6 14 9 30 8 17 -1 33 2 36 6 2 4
13 6 24 4 11 -2 20 0 20 5 0 5 9 7 20 5 11 -2 22 0 25 6 4 5 14 5 26 -1 14 -8
19 -8 17 1 -2 7 9 13 25 14 15 1 33 7 39 13 7 7 17 12 22 12 6 0 4 -5 -4 -10
-9 -6 -10 -10 -3 -10 6 0 14 4 18 9 3 6 14 8 25 6 11 -2 20 -1 20 3 0 7 9 9
65 14 14 1 25 6 25 11 0 4 5 5 10 2 6 -3 16 -3 23 2 6 4 26 9 42 11 17 1 36 3
43 4 6 1 12 4 12 8 0 4 14 6 30 5 17 -1 30 2 30 6 0 5 11 4 25 -1 15 -6 25 -6
25 0 0 5 12 5 30 0 21 -6 30 -5 30 3 0 7 4 6 10 -3 5 -8 10 -10 10 -5 0 6 9
11 20 11 11 0 20 -4 20 -9 0 -4 4 -6 9 -2 5 3 12 1 16 -5 3 -5 2 -10 -2 -10
-5 0 -9 -9 -9 -20 0 -11 5 -20 11 -20 6 0 7 -3 0 -8 -12 -8 -15 -53 -3 -46 4
3 8 -2 8 -11 0 -10 -5 -13 -12 -9 -9 5 -9 2 1 -9 10 -13 10 -17 1 -17 -8 0 -9
-6 -5 -18 4 -9 7 -33 5 -52 -3 -45 -3 -51 4 -78 3 -13 1 -20 -5 -17 -5 4 -9 1
-9 -4 0 -6 6 -11 13 -11 8 0 7 -4 -3 -10 -10 -6 -11 -10 -2 -10 6 0 12 -5 12
-11 0 -5 -6 -7 -12 -3 -10 5 -10 4 -1 -6 10 -11 9 -16 -4 -25 -13 -10 -13 -14
-3 -20 9 -6 11 -4 5 6 -5 8 -4 11 1 6 9 -9 11 -14 13 -47 0 -11 8 -20 16 -20
8 0 15 -4 15 -9 0 -5 23 -11 50 -13 28 -1 50 -1 50 2 0 10 75 5 83 -5 5 -7 10
-7 15 0 4 6 18 10 32 10 14 0 29 -4 33 -10 6 -7 10 -6 13 2 4 8 14 9 35 3 16
-5 29 -5 29 -1 0 4 20 5 44 1 37 -5 43 -4 38 8 -3 10 -1 13 5 9 6 -4 19 0 27
9 14 13 16 49 16 245 l0 229 28 0 c15 0 34 6 41 13 11 10 12 9 5 -3 -6 -11 0
-10 21 4 36 24 71 56 61 56 -4 0 -1 7 7 15 12 12 14 67 11 352 -3 363 -3 363
-16 363 -5 0 -8 6 -6 13 3 15 -24 77 -34 77 -4 0 -5 6 -2 14 3 7 -2 16 -11 20
-9 3 -14 10 -11 15 3 5 -1 11 -9 15 -8 3 -15 12 -15 20 0 7 -7 17 -16 20 -9 4
-14 9 -11 13 4 3 -8 19 -26 36 -18 16 -31 34 -29 39 1 4 -1 7 -5 6 -15 -3 -43
14 -37 23 3 5 -1 9 -8 9 -7 0 -27 13 -44 30 -18 16 -34 27 -36 24 -3 -2 -11 2
-18 11 -7 8 -17 15 -23 15 -6 0 -22 10 -35 23 -14 12 -22 16 -18 9 4 -7 -7 -4
-26 8 -18 11 -41 20 -50 20 -10 0 -18 5 -18 10 0 6 -3 9 -7 9 -19 -3 -33 2
-33 12 0 5 6 7 13 3 9 -6 9 -5 0 8 -7 8 -10 18 -6 22 8 8 13 30 15 68 0 16 6
25 12 22 6 -3 2 2 -8 10 -11 9 -14 16 -8 16 7 0 12 5 12 11 0 5 -4 8 -9 5 -5
-4 -7 3 -4 14 3 11 0 26 -6 34 -8 10 -9 16 -1 21 7 4 5 11 -5 21 -8 9 -13 19
-10 24 3 5 0 10 -5 12 -10 3 -17 22 -19 52 -1 4 -8 5 -17 2 -8 -3 -12 -2 -9 4
3 5 1 20 -6 32 -15 30 -94 105 -119 113 -11 4 -20 11 -20 16 0 5 -6 9 -13 9
-7 0 -30 9 -51 21 -21 11 -35 15 -31 10 3 -7 0 -8 -9 -5 -9 3 -16 10 -16 16 0
5 -4 7 -9 3 -6 -3 -28 -1 -50 4 -27 6 -41 5 -41 -1 0 -6 -6 -8 -14 -5 -7 3
-19 0 -26 -6 -10 -9 -11 -9 -6 1 4 6 3 12 -2 12 -5 0 -9 7 -9 15 0 8 5 15 11
15 7 0 7 3 1 8 -22 16 -13 28 17 24 21 -3 29 -1 24 7 -10 16 0 14 18 -5 15
-14 16 -14 16 3 0 14 2 15 9 4 5 -7 15 -11 22 -9 8 3 23 1 34 -5 17 -9 18 -8
8 4 -9 11 -7 14 13 14 17 0 23 -4 19 -14 -4 -11 -3 -12 10 -1 8 7 15 9 15 4 0
-4 5 -3 12 4 18 18 32 14 17 -5 -13 -15 -12 -15 9 -4 12 6 22 9 22 5 0 -3 8 0
17 7 9 8 14 9 10 3 -4 -7 0 -14 8 -18 8 -3 14 -2 12 2 -1 4 2 8 6 9 14 3 36
37 37 56 0 12 -4 16 -12 11 -7 -4 -5 2 5 13 10 12 14 24 9 27 -11 6 -9 57 3
75 4 7 13 10 21 7 8 -3 17 1 20 9 4 8 10 12 15 9 5 -3 9 0 9 6 0 7 7 9 17 6
10 -4 14 -4 10 0 -4 4 1 13 11 21 9 8 11 11 3 7 -9 -5 -12 -3 -7 4 4 7 14 12
22 12 8 0 13 4 9 9 -3 5 2 16 10 24 8 9 15 25 15 37 0 14 4 19 13 14 8 -5 8
-2 -2 9 -9 12 -10 17 -2 17 9 0 9 5 1 20 -8 14 -8 20 0 20 7 0 8 5 3 13 -4 6
-8 22 -8 35 0 13 -7 27 -15 32 -8 6 -11 10 -6 10 5 0 -1 8 -12 19 -12 10 -19
21 -15 25 3 3 2 6 -3 6 -5 0 -22 11 -38 25 -31 27 -51 33 -41 13 4 -7 1 -6 -7
3 -9 11 -31 15 -75 15 -34 -1 -65 -4 -69 -8 -4 -5 -16 -8 -26 -8 -10 0 -18 -5
-18 -12 0 -6 -3 -8 -7 -5 -3 4 -12 -1 -20 -11 -10 -11 -12 -12 -8 -2 4 8 -3 4
-14 -10 -11 -14 -21 -29 -21 -33 0 -5 -6 -5 -12 -1 -7 4 -10 3 -5 -1 4 -5 -1
-17 -10 -28 -10 -11 -12 -17 -6 -13 9 5 11 2 7 -8 -3 -9 -9 -16 -13 -16 -10 0
-7 -73 3 -89 7 -11 5 -13 -10 -8 -17 6 -17 6 -3 -5 9 -7 16 -15 16 -18 -2 -13
47 -99 53 -95 11 7 31 -20 23 -29 -4 -4 0 -4 10 0 10 3 17 1 17 -5 0 -6 3 -10
8 -9 4 2 19 -6 33 -17 25 -20 34 -63 16 -81 -11 -11 -248 -10 -256 1 -4 6 -7
66 -6 135 1 75 -3 131 -9 139 -7 10 -7 13 -1 9 7 -4 10 89 10 290 -1 272 -2
299 -19 325 -10 15 -27 32 -37 37 -23 13 -1832 14 -1825 1z m141 -231 c4 -6
12 -7 18 -3 18 11 37 12 37 2 0 -6 8 -5 20 1 15 8 20 8 20 -1 0 -8 4 -8 15 1
11 9 15 9 15 1 0 -7 5 -9 12 -5 21 13 58 13 58 1 0 -7 4 -6 10 3 7 11 10 11
10 2 0 -10 5 -10 20 -2 15 8 20 8 20 -1 0 -8 4 -8 15 1 11 9 15 9 15 1 0 -7 5
-9 12 -5 21 13 58 13 58 1 0 -7 4 -6 10 3 7 11 10 11 10 2 0 -10 5 -10 20 -2
15 8 20 8 20 -1 0 -8 4 -8 15 1 11 9 15 9 15 1 0 -7 5 -9 12 -5 21 13 58 13
58 1 0 -7 4 -6 10 3 7 11 10 11 10 2 0 -10 5 -10 20 -2 15 8 20 8 20 -1 0 -8
4 -8 15 1 11 9 15 9 15 1 0 -7 5 -9 12 -5 20 12 58 14 58 2 0 -6 6 -6 15 2 11
9 18 10 28 1 8 -6 17 -8 20 -4 12 11 57 12 57 1 0 -6 6 -6 15 2 11 9 18 10 28
1 8 -6 17 -8 20 -4 12 11 57 12 57 1 0 -6 6 -6 15 2 11 9 18 10 28 1 8 -6 17
-8 21 -4 11 11 96 10 96 -2 0 -5 4 -4 9 4 6 9 11 10 15 2 4 -6 12 -9 17 -5 17
10 79 12 85 3 3 -5 11 -6 17 -2 19 11 57 12 57 1 0 -6 6 -6 15 2 11 9 18 10
28 1 8 -6 17 -8 20 -4 12 11 57 12 57 1 0 -6 6 -6 15 2 12 10 18 10 29 1 9 -8
16 -8 20 -2 4 6 15 7 29 2 14 -5 30 -5 40 1 13 6 19 5 23 -6 3 -8 12 -12 20
-9 9 3 14 0 12 -8 -2 -8 3 -13 11 -11 9 2 12 -4 8 -18 -3 -11 -2 -20 3 -20 9
0 7 -56 -2 -66 -4 -4 -4 -12 0 -18 10 -16 10 -106 0 -112 -5 -3 -3 -12 3 -21
10 -12 10 -16 -2 -24 -11 -7 -11 -9 -1 -9 7 0 12 -8 10 -17 -1 -10 1 -24 5
-31 5 -7 5 -11 0 -10 -4 2 -8 -1 -8 -7 0 -5 4 -9 9 -7 5 2 3 -4 -4 -13 -12
-14 -11 -18 1 -26 9 -6 10 -9 2 -9 -7 0 -10 -7 -6 -17 5 -12 3 -14 -8 -8 -11
7 -12 6 -3 -6 12 -16 12 -29 1 -46 -5 -8 -4 -13 3 -13 11 0 -10 -25 -44 -50
-18 -13 -19 -13 -11 0 7 12 6 13 -7 3 -8 -7 -18 -10 -21 -6 -4 3 -7 1 -7 -6 0
-7 -5 -9 -12 -5 -17 11 -78 10 -78 -1 0 -7 -3 -7 -8 0 -8 11 -82 14 -82 3 0
-4 -7 -5 -15 -2 -26 10 -135 9 -135 -1 0 -5 -4 -4 -9 4 -6 9 -11 10 -15 2 -9
-15 -28 -3 -20 12 3 7 -1 5 -8 -5 -10 -11 -19 -13 -30 -7 -11 6 -19 5 -23 -1
-9 -14 -27 -2 -19 13 3 7 -1 4 -9 -5 -8 -10 -17 -15 -20 -12 -6 6 -332 8 -358
2 -8 -2 -13 4 -11 12 2 12 0 12 -11 -2 -9 -11 -18 -13 -29 -7 -11 6 -19 5 -23
-1 -9 -14 -27 -2 -19 13 3 7 -1 4 -9 -5 -8 -10 -17 -15 -20 -12 -10 10 -87 9
-87 -1 0 -7 -3 -7 -8 0 -8 11 -82 14 -82 3 0 -4 -7 -5 -15 -2 -26 10 -135 9
-135 -1 0 -5 -4 -4 -9 4 -6 9 -11 10 -15 2 -9 -15 -28 -3 -20 12 3 7 -1 5 -8
-5 -10 -11 -19 -13 -30 -7 -11 6 -19 5 -23 -1 -9 -14 -27 -2 -19 13 3 7 -1 4
-9 -5 -8 -10 -17 -15 -21 -11 -4 4 -22 6 -41 5 -23 -2 -35 2 -35 10 0 9 -3 8
-10 -2 -6 -10 -10 -11 -10 -2 0 6 -6 11 -12 10 -7 -2 -12 3 -10 10 1 6 -5 12
-13 12 -8 0 -14 3 -14 8 4 21 -2 32 -13 26 -10 -6 -10 -5 -1 8 7 8 10 18 6 21
-3 4 -1 13 5 20 7 8 9 17 5 21 -11 10 -11 106 -1 112 5 3 3 12 -3 21 -10 12
-10 16 2 24 11 7 11 9 1 9 -7 0 -12 8 -10 18 1 9 -1 22 -5 29 -4 6 -2 15 4 19
8 5 9 3 4 -6 -5 -9 -4 -11 4 -6 7 5 9 12 3 19 -5 7 -8 31 -5 55 2 33 0 42 -9
37 -7 -4 -4 1 6 9 11 9 15 16 9 16 -9 0 -11 20 -3 40 1 3 2 9 1 13 -1 5 3 6 9
2 5 -3 10 1 10 9 0 9 3 15 8 15 4 -1 16 -1 27 0 17 1 18 3 5 11 -9 6 -10 10
-3 10 6 0 15 -5 18 -10z m2010 -628 c-3 -3 -11 0 -18 7 -9 10 -8 11 6 5 10 -3
15 -9 12 -12z m-1185 -153 c4 -5 23 -10 43 -11 20 -2 37 -7 37 -12 0 -4 11 -6
25 -4 14 3 28 1 31 -4 3 -4 10 -6 15 -3 5 4 12 -1 15 -10 6 -13 8 -14 15 -3 5
7 9 8 9 2 0 -6 10 -11 23 -10 12 1 31 -3 42 -9 11 -6 29 -10 40 -10 11 0 22
-2 25 -6 3 -4 20 -9 37 -11 18 -2 40 -13 49 -23 8 -11 13 -13 9 -5 -4 8 2 5
13 -7 11 -12 22 -20 24 -17 3 2 11 -2 18 -11 7 -8 9 -15 6 -15 -4 0 0 -7 8
-16 9 -8 14 -20 11 -25 -4 -5 -2 -9 3 -9 10 0 9 -30 -2 -48 -4 -7 -2 -12 4
-12 8 0 8 -6 0 -20 -8 -15 -8 -20 2 -20 10 0 10 -2 1 -8 -7 -4 -11 -16 -9 -27
2 -11 -2 -23 -8 -27 -8 -5 -7 -8 2 -8 7 0 11 -4 7 -10 -6 -9 -18 -138 -17
-175 1 -10 -4 -26 -11 -34 -8 -10 -8 -13 -1 -8 7 4 14 0 18 -8 3 -8 0 -14 -6
-12 -14 3 -19 -31 -6 -40 7 -4 8 -1 3 7 -6 9 -4 11 5 5 11 -7 10 -10 -2 -19
-8 -6 -15 -30 -16 -56 0 -25 -3 -57 -5 -72 -3 -16 0 -28 7 -28 8 0 8 -2 0 -8
-7 -4 -12 -20 -12 -37 0 -68 -2 -76 -14 -69 -10 6 -10 4 -2 -7 5 -8 9 -25 7
-39 -2 -14 -4 -44 -4 -67 -1 -24 -5 -40 -10 -37 -5 3 -8 0 -7 -8 2 -7 10 -16
18 -20 12 -5 11 -7 -4 -7 -15 -1 -16 -4 -6 -16 8 -10 9 -15 2 -15 -6 0 -9 -6
-6 -14 3 -8 0 -17 -5 -21 -6 -3 -8 -12 -4 -18 9 -14 11 -77 2 -77 -9 0 -5
-104 5 -120 9 -13 8 -13 -7 -1 -10 8 -17 9 -17 3 0 -6 5 -14 10 -17 8 -5 7
-11 -1 -21 -7 -9 -12 -44 -11 -86 0 -43 -3 -67 -8 -59 -5 10 -8 6 -7 -12 1
-14 5 -23 10 -20 4 2 7 -1 7 -6 0 -6 -5 -11 -11 -11 -5 0 -7 -4 -4 -10 3 -5 1
-19 -5 -30 -8 -14 -8 -20 0 -20 6 0 8 -5 5 -10 -4 -6 -11 -8 -16 -5 -5 4 -9
-3 -9 -15 0 -12 -4 -18 -10 -15 -5 3 -10 -2 -10 -11 0 -10 -3 -15 -6 -11 -3 3
-15 -3 -27 -13 -11 -11 -24 -17 -29 -14 -4 3 -8 1 -8 -5 0 -5 -9 -8 -20 -6
-11 2 -20 0 -20 -5 0 -5 -12 -7 -26 -4 -14 3 -23 1 -21 -3 3 -4 -19 -8 -49 -8
-30 1 -54 -3 -54 -8 0 -5 -7 -4 -15 3 -14 11 -19 7 -16 -12 0 -5 -3 -8 -9 -8
-5 0 -10 6 -10 13 0 8 -4 7 -10 -3 -8 -12 -10 -12 -10 -1 0 9 -4 10 -12 4 -16
-13 -162 -6 -166 8 -3 6 -9 6 -18 -2 -8 -6 -14 -7 -14 -2 0 5 -12 8 -27 8 -16
-1 -36 3 -45 7 -12 6 -18 5 -18 -2 0 -6 -5 -8 -10 -5 -6 4 -7 12 -3 18 4 8 1
7 -9 -1 -13 -10 -22 -11 -37 -2 -12 6 -29 10 -39 8 -10 -2 -16 3 -14 10 1 8
-2 11 -7 8 -5 -4 -12 -2 -16 4 -4 6 -9 9 -13 7 -4 -2 -17 7 -29 20 -12 13 -20
23 -16 23 3 0 -1 8 -8 17 -12 14 -12 16 1 9 13 -7 13 -6 0 6 -8 7 -16 20 -16
28 -1 8 -5 24 -10 34 -5 14 -4 17 5 11 10 -6 11 -3 3 11 -5 11 -9 43 -8 72 0
30 -2 56 -6 58 -4 3 -7 17 -7 32 0 63 -7 131 -13 137 -4 4 -3 17 2 30 5 13 6
26 2 30 -10 10 -9 29 3 37 6 5 6 8 -2 8 -7 0 -10 7 -6 17 4 11 3 14 -5 9 -9
-5 -9 -1 -3 17 6 14 7 28 3 31 -3 4 -7 27 -8 52 -1 25 -4 48 -8 51 -3 3 -1 14
4 24 6 10 6 20 1 23 -5 3 -8 19 -7 36 1 17 -1 35 -5 42 -4 7 0 18 9 25 15 11
15 12 1 7 -13 -4 -16 1 -14 20 2 14 0 28 -5 31 -4 3 -4 21 0 40 6 28 4 37 -9
45 -9 5 -11 10 -5 10 14 0 13 42 -1 52 -6 5 -5 8 3 8 6 0 12 5 12 11 0 5 -4 8
-8 5 -4 -3 -7 8 -6 25 1 16 -3 29 -9 29 -8 0 -7 4 2 9 10 6 10 13 3 28 -6 11
-7 25 -2 33 5 8 6 19 2 25 -10 16 -9 49 3 57 6 5 3 8 -7 8 -10 0 -18 5 -18 11
0 5 4 8 9 5 5 -4 8 2 6 11 -2 10 -4 24 -4 31 -1 8 -6 10 -13 6 -10 -6 -10 -4
-2 7 11 15 11 99 0 118 -4 6 -2 20 4 31 8 15 8 20 -2 20 -7 0 -2 9 12 20 14
11 21 20 16 20 -32 1 96 80 129 80 9 0 13 5 9 11 -5 8 -1 8 14 0 14 -7 23 -8
27 -1 4 6 11 8 16 5 5 -4 9 -2 9 4 0 5 8 10 18 11 81 4 90 6 81 16 -6 7 3 10
26 9 19 -1 35 2 35 8 0 5 7 4 16 -3 12 -11 15 -11 12 1 -2 9 6 14 25 13 15 0
27 3 27 8 0 4 7 5 15 2 8 -4 15 -2 15 3 0 12 113 13 120 2z m1271 -216 c13
-16 12 -17 -3 -4 -17 13 -22 21 -14 21 2 0 10 -8 17 -17z m-2341 -46 c0 -5 7
-4 15 3 10 8 15 9 15 2 0 -6 7 -9 15 -6 8 4 15 1 15 -4 0 -6 9 -9 19 -7 11 2
22 -3 25 -11 3 -8 12 -11 22 -7 12 4 15 3 10 -5 -4 -7 -2 -12 5 -12 6 0 22
-11 34 -24 13 -14 26 -22 30 -18 4 4 6 3 5 -3 -4 -19 0 -36 8 -31 4 2 12 -7
19 -20 6 -13 7 -22 2 -18 -5 3 -6 -2 -3 -10 3 -9 9 -16 13 -16 4 0 8 -6 9 -12
1 -7 3 -24 5 -38 2 -14 -1 -31 -6 -38 -7 -9 -5 -11 9 -5 17 6 17 5 5 -10 -7
-9 -10 -17 -5 -17 4 0 0 -6 -11 -13 -14 -11 -15 -16 -5 -22 9 -6 11 -4 5 5 -5
9 -4 11 3 6 8 -5 5 -16 -8 -38 -10 -17 -17 -35 -14 -40 3 -4 -2 -8 -11 -8 -9
0 -13 -4 -10 -10 3 -5 1 -10 -5 -10 -6 0 -8 -4 -5 -10 3 -5 -1 -10 -9 -10 -8
0 -18 -9 -21 -20 -3 -11 -13 -20 -21 -20 -8 0 -14 -4 -14 -10 0 -5 -7 -10 -15
-10 -8 0 -15 -5 -15 -11 0 -5 -4 -7 -10 -4 -5 3 -10 2 -10 -3 0 -5 -6 -9 -12
-10 -51 -4 -64 -7 -75 -14 -6 -5 -14 -5 -17 0 -3 5 -19 8 -36 7 -16 -1 -30 3
-30 9 0 6 -4 5 -9 -2 -7 -11 -10 -10 -15 3 -3 9 -12 15 -19 12 -6 -2 -18 3
-25 12 -11 13 -12 13 -6 1 4 -8 -4 -5 -18 8 -13 12 -28 19 -33 15 -4 -5 -5 -3
-1 4 4 7 -2 17 -14 23 -11 6 -20 17 -20 25 0 7 -6 20 -14 27 -8 8 -16 23 -18
34 -2 10 -8 18 -14 17 -10 -2 -10 116 0 165 4 18 12 30 17 27 5 -4 6 1 3 9 -3
9 1 23 10 32 9 8 14 20 11 25 -4 5 1 9 10 9 9 0 13 5 10 10 -3 6 1 10 9 10 9
0 16 5 16 10 0 6 7 10 16 10 8 0 12 4 9 10 -3 5 6 12 20 16 14 3 25 10 25 15
0 5 7 5 17 2 12 -5 14 -3 8 8 -6 11 -5 11 5 2 10 -9 15 -9 25 0 14 14 75 17
75 4z m2013 0 c-3 -6 -1 -7 6 -3 20 13 61 17 61 6 0 -5 16 -10 35 -10 21 0 38
-6 41 -14 3 -8 13 -12 25 -9 13 4 19 0 19 -11 0 -10 5 -14 10 -11 6 3 10 -1
10 -10 0 -11 5 -15 15 -11 8 3 15 1 15 -4 0 -5 7 -16 16 -24 11 -11 12 -16 3
-16 -7 0 -4 -6 7 -15 10 -8 15 -15 11 -15 -5 0 -1 -7 7 -16 9 -8 16 -31 16
-50 0 -20 5 -34 13 -34 9 0 9 -2 0 -8 -6 -4 -10 -24 -9 -45 2 -20 -1 -37 -5
-37 -5 0 -6 -7 -3 -15 4 -8 1 -15 -6 -15 -6 0 -9 -4 -6 -9 3 -5 -4 -21 -16
-37 -13 -15 -17 -25 -10 -21 8 6 10 3 6 -8 -4 -9 -9 -13 -12 -10 -3 2 -12 -4
-19 -15 -8 -11 -19 -17 -25 -14 -6 4 -8 2 -5 -3 7 -12 -31 -41 -60 -46 -10 -2
-31 -9 -47 -16 -16 -6 -35 -10 -43 -7 -7 3 -13 0 -13 -7 0 -7 -3 -8 -8 -2 -4
6 -26 11 -49 12 -24 1 -50 9 -59 17 -18 18 -28 21 -18 5 3 -6 -5 -3 -20 6 -14
10 -26 22 -26 27 0 5 -4 6 -10 3 -5 -3 -10 1 -10 9 0 9 -6 15 -12 14 -7 -2
-12 3 -10 10 1 6 -5 12 -14 12 -8 0 -12 5 -9 10 3 6 1 10 -5 10 -7 0 -10 6 -7
14 3 8 -1 17 -9 20 -9 3 -12 10 -9 16 3 5 1 10 -6 10 -8 0 -7 5 2 17 10 11 10
14 2 9 -15 -8 -14 -10 -18 61 -1 36 1 50 9 46 8 -4 7 -2 0 6 -9 10 -6 24 12
57 13 24 22 44 20 44 -2 0 13 17 32 38 19 20 37 36 39 34 3 -2 12 5 21 15 19
20 35 26 74 27 16 1 23 5 18 11 -5 6 1 11 16 11 14 1 21 -2 17 -9z"/>
<path d="M1981 2554 c8 -9 5 -11 -10 -7 -21 5 -28 -4 -34 -42 -1 -11 -6 -25
-10 -32 -4 -6 -2 -15 4 -19 8 -5 9 -3 4 6 -5 9 -4 11 4 6 9 -6 9 -11 1 -21 -8
-10 -7 -14 2 -18 10 -4 10 -6 0 -6 -8 -1 -10 -9 -6 -27 5 -21 4 -25 -6 -19
-10 6 -11 4 -4 -6 14 -23 17 -62 3 -53 -8 5 -9 3 -3 -7 14 -23 17 -62 3 -53
-8 5 -9 3 -3 -7 14 -23 17 -62 3 -53 -8 5 -9 3 -3 -7 14 -23 17 -62 3 -53 -8
5 -9 3 -3 -7 13 -22 14 -43 1 -51 -9 -6 -9 -8 1 -8 6 0 12 -9 12 -21 0 -13 -4
-18 -12 -13 -7 5 -8 3 -2 -7 14 -23 17 -62 3 -53 -8 5 -9 3 -3 -7 14 -23 17
-62 3 -53 -8 5 -9 3 -3 -7 14 -23 17 -62 3 -53 -8 5 -9 3 -3 -7 14 -23 17 -62
3 -53 -8 5 -9 3 -3 -7 14 -23 17 -62 3 -53 -8 5 -9 3 -3 -7 14 -23 17 -62 3
-53 -8 5 -9 3 -3 -7 14 -23 17 -62 3 -53 -8 5 -9 3 -3 -7 14 -23 17 -62 3 -53
-8 5 -9 3 -3 -7 5 -8 10 -25 12 -37 2 -17 -1 -22 -10 -16 -10 6 -10 4 -2 -7 5
-8 10 -23 10 -34 -1 -11 4 -23 9 -27 6 -5 5 -8 -3 -8 -8 0 -10 -8 -6 -26 5
-21 4 -25 -6 -19 -10 6 -11 4 -4 -6 14 -23 17 -62 3 -53 -8 5 -9 3 -3 -7 14
-23 17 -62 3 -53 -8 5 -9 3 -3 -7 14 -23 17 -62 3 -53 -8 5 -9 3 -3 -7 14 -23
17 -62 3 -54 -8 6 -8 2 0 -12 6 -11 7 -23 4 -27 -3 -3 -1 -6 6 -6 7 0 10 -4 7
-9 -9 -14 22 -34 44 -28 11 3 22 1 25 -4 8 -13 44 27 49 55 2 14 -1 27 -7 30
-9 3 -8 5 1 5 8 1 10 9 6 27 -5 21 -4 25 6 19 10 -6 11 -4 4 6 -14 23 -17 62
-3 53 8 -5 9 -3 3 7 -14 23 -17 62 -3 53 8 -5 9 -3 3 7 -14 23 -17 62 -3 53 8
-5 9 -3 3 7 -14 23 -17 62 -3 54 8 -5 8 -2 2 11 -5 11 -9 53 -8 94 0 41 -4 78
-10 82 -6 5 -5 8 3 8 8 0 10 8 6 26 -5 21 -4 25 6 19 10 -6 11 -4 4 6 -14 23
-17 62 -3 53 8 -5 9 -3 3 7 -14 23 -17 62 -3 53 8 -5 9 -3 3 7 -14 23 -17 62
-3 53 8 -5 9 -3 3 7 -14 23 -17 62 -3 54 8 -5 8 -2 2 11 -5 11 -9 89 -8 174 0
96 -3 158 -10 162 -6 5 -5 8 3 8 8 0 10 8 6 26 -5 21 -4 25 6 19 10 -6 11 -4
4 6 -14 23 -17 62 -3 53 8 -5 9 -3 3 7 -5 8 -10 25 -12 37 -2 17 1 22 10 16
10 -6 10 -4 -1 9 -7 9 -10 17 -7 17 4 0 2 10 -5 22 -10 18 -9 20 5 15 14 -6
15 -4 4 16 -7 12 -12 27 -13 32 0 6 -10 11 -22 13 -13 2 -23 7 -23 11 0 3 -9
7 -19 7 -14 0 -17 -4 -10 -12z"/>
<path d="M1599 2451 c-19 -19 -30 -69 -18 -77 5 -3 4 -14 -1 -25 -8 -14 -7
-19 1 -19 6 0 9 -6 6 -14 -3 -7 0 -19 6 -26 9 -10 9 -11 0 -6 -8 5 -10 -7 -7
-41 3 -27 5 -56 5 -65 0 -10 4 -20 10 -23 5 -4 5 -14 -1 -26 -6 -10 -7 -19 -3
-19 4 0 8 -18 9 -40 1 -26 -3 -37 -10 -33 -6 4 -4 -1 3 -11 10 -11 15 -39 14
-77 0 -32 2 -57 6 -55 4 3 7 -4 7 -15 0 -10 -4 -19 -9 -19 -4 0 -5 -5 -2 -11
4 -6 8 -42 10 -80 2 -39 6 -73 9 -76 3 -3 0 -13 -7 -21 -8 -10 -8 -13 -1 -9
15 9 26 -17 12 -31 -6 -6 -6 -12 1 -16 7 -5 7 -15 1 -32 -6 -15 -6 -23 -1 -19
5 3 9 -19 7 -51 -1 -30 1 -57 5 -59 3 -3 5 -17 4 -32 -1 -15 3 -31 9 -35 8 -5
7 -8 -1 -8 -8 0 -9 -9 -4 -27 4 -16 6 -51 6 -80 -1 -28 2 -50 5 -48 3 2 7 -6
7 -18 2 -18 0 -19 -8 -7 -9 12 -9 11 -4 -5 4 -11 8 -30 8 -42 1 -13 5 -23 10
-23 5 0 4 -7 -3 -15 -10 -12 -10 -15 0 -15 7 0 10 -7 6 -15 -3 -9 0 -15 8 -15
8 0 16 -6 19 -13 7 -19 61 -14 83 7 14 15 15 22 6 37 -7 11 -8 20 -2 24 6 3
10 11 10 16 0 6 -5 7 -12 3 -7 -5 -8 -3 -3 7 11 17 13 79 3 79 -5 0 -6 11 -2
25 4 15 1 32 -6 40 -10 12 -10 15 0 15 9 0 9 4 -1 17 -12 15 -12 16 1 8 12 -6
13 -5 3 6 -7 7 -13 17 -13 22 0 4 6 5 13 1 7 -5 7 -1 -2 10 -13 15 -13 19 0
27 8 5 9 9 3 9 -7 0 -14 11 -16 25 -3 14 -1 25 4 25 5 0 1 15 -8 33 -16 30
-16 31 0 18 15 -12 16 -12 10 5 -4 10 -12 25 -18 33 -8 11 -8 13 2 7 6 -4 12
-3 12 3 0 5 -6 12 -12 14 -10 4 -10 6 0 6 9 1 10 6 3 20 -6 10 -8 21 -4 24 3
4 0 14 -8 24 -10 12 -10 15 -1 9 10 -6 11 -1 7 21 -3 15 -8 57 -10 92 -2 35
-7 66 -9 69 -3 3 0 12 7 20 10 13 9 14 -1 8 -9 -6 -12 2 -9 31 2 21 0 48 -4
60 -5 13 -4 25 2 28 5 4 6 12 2 18 -4 7 -8 19 -8 27 0 8 -4 21 -9 29 -7 11 -5
13 9 7 18 -7 18 -6 0 14 -14 15 -15 20 -4 20 9 0 10 3 3 8 -5 4 -9 26 -9 50 1
23 -1 42 -4 42 -8 0 -6 64 3 78 3 6 1 14 -5 18 -8 5 -9 3 -4 -6 5 -9 4 -11 -3
-6 -9 5 -9 13 -2 27 8 14 7 19 -2 19 -10 0 -10 2 -1 8 8 5 9 13 3 22 -14 21
-12 32 3 24 9 -6 9 -5 0 7 -12 15 -13 19 -13 45 0 8 -5 12 -10 9 -6 -3 -13 0
-16 8 -7 19 -55 17 -75 -2z"/>
<path d="M2318 2449 c-19 -14 -25 -25 -20 -41 3 -13 1 -19 -5 -15 -10 7 -9
-46 2 -63 3 -5 1 -11 -3 -14 -5 -3 -8 -17 -7 -31 2 -14 0 -25 -4 -25 -4 0 -8
-7 -8 -15 0 -8 4 -15 8 -15 5 0 5 -10 0 -22 -5 -13 -7 -35 -5 -50 1 -16 -2
-28 -7 -28 -6 0 -7 -6 -2 -12 11 -18 12 -58 1 -52 -5 3 -7 -11 -5 -30 3 -22 0
-36 -7 -36 -7 0 -7 -3 -1 -8 13 -9 16 -42 4 -42 -5 0 -6 -14 -2 -32 4 -21 3
-29 -5 -24 -7 4 -8 -3 -2 -23 6 -21 5 -31 -3 -35 -8 -3 -7 -5 2 -5 11 -1 10
-5 -5 -17 -10 -8 -14 -13 -7 -10 13 7 13 -40 0 -62 -5 -6 -4 -12 0 -12 9 0 10
-40 1 -56 -3 -5 -4 -17 -3 -26 2 -10 -1 -18 -6 -18 -5 0 -9 -5 -9 -11 0 -5 5
-7 10 -4 6 3 10 1 10 -4 0 -6 -5 -11 -11 -11 -5 0 -7 -6 -3 -12 12 -19 12 -48
1 -41 -6 4 -8 -6 -4 -25 4 -18 3 -32 -1 -32 -9 0 -8 -58 1 -66 3 -4 2 -15 -4
-26 -5 -10 -7 -23 -4 -28 3 -6 2 -10 -4 -10 -11 0 -9 -26 4 -37 4 -4 5 -2 0 6
-6 10 -4 12 5 6 11 -7 10 -10 -1 -19 -19 -15 -26 -71 -7 -60 10 6 11 5 1 -7
-11 -14 -20 -100 -13 -124 5 -20 0 -36 -10 -30 -16 10 -12 0 10 -25 22 -26 79
-35 87 -14 3 8 9 11 14 8 5 -3 9 2 9 11 0 9 5 13 11 9 8 -5 8 -1 0 14 -6 12
-7 23 -2 26 5 3 8 26 7 51 -1 30 3 46 12 50 8 3 10 10 5 17 -10 17 -10 98 0
98 4 0 3 9 -3 20 -6 11 -7 20 -1 20 5 0 7 16 5 35 -2 22 1 35 9 35 7 0 6 4 -3
10 -11 7 -11 10 -2 10 10 0 10 5 2 20 -6 11 -7 20 -2 20 5 0 8 19 8 43 -1 23
2 48 7 55 6 8 5 12 -2 12 -8 0 -9 5 -2 19 6 10 8 28 6 40 -2 11 1 21 6 21 6 0
5 8 -2 21 -8 15 -8 19 0 15 6 -4 11 -2 11 3 0 6 -5 11 -10 11 -7 0 -7 6 0 19
14 27 13 44 -2 35 -8 -5 -7 -1 1 10 10 11 15 39 14 77 0 32 3 57 7 54 10 -6 7
21 -3 31 -4 4 1 13 11 21 9 8 12 12 5 8 -9 -4 -11 7 -7 47 3 29 6 65 8 81 1
15 -2 27 -7 27 -4 0 -5 5 -2 10 4 6 10 8 14 5 5 -2 6 10 4 28 -3 17 -4 37 -4
42 1 6 2 33 4 62 1 28 4 50 7 48 3 -2 6 14 5 36 0 21 -3 39 -7 39 -5 0 -8 7
-8 15 0 8 -3 16 -7 16 -45 7 -62 5 -85 -12z m19 -1215 c-3 -3 -12 -4 -19 -1
-8 3 -5 6 6 6 11 1 17 -2 13 -5z"/>
</g>
</svg>
